<svg width="705" height="125" viewBox="0 0 705 125" fill="none" xmlns="http://www.w3.org/2000/svg">
<mask id="path-1-outside-1_43_7" maskUnits="userSpaceOnUse" x="-2" y="6" width="379" height="97" fill="black">
<rect fill="white" x="-2" y="6" width="379" height="97"/>
<path d="M73.344 8.992L74.624 34.72L38.784 38.56L36.224 71.456L52.608 70.56L51.712 63.008L44.288 63.264L45.952 46.24L75.392 44.576L78.72 99.744L54.656 100.128L54.272 96.288L23.552 100.128L5.632 85.408L10.624 38.048L1.792 38.688L0.384 12.192L73.344 8.992ZM79.396 38.176L78.116 11.808L121.252 11.552L122.532 99.744L91.556 99.36L91.172 37.536L79.396 38.176ZM126.149 37.792L124.869 11.296L171.589 9.75999L182.085 39.072L194.757 10.656L225.221 11.296L227.781 100.128H200.645L200.005 64.288L190.917 98.208L176.453 99.232L167.877 66.976L166.213 100.256L136.261 99.36L137.285 37.024L126.149 37.792ZM302.317 9.632L302.061 36L271.981 36.384V44.576H291.565V66.208L272.237 67.104L272.621 99.744L243.949 100L243.693 38.304H231.533L229.613 11.424L302.317 9.632ZM374.067 9.632L373.811 36L343.731 36.384V44.576H363.315V66.208L343.987 67.104L344.371 99.744L315.699 100L315.443 38.304H303.283L301.363 11.424L374.067 9.632Z"/>
</mask>
<g filter="url(#filter0_i_43_7)">
<path d="M73.344 8.992L74.624 34.72L38.784 38.56L36.224 71.456L52.608 70.56L51.712 63.008L44.288 63.264L45.952 46.24L75.392 44.576L78.72 99.744L54.656 100.128L54.272 96.288L23.552 100.128L5.632 85.408L10.624 38.048L1.792 38.688L0.384 12.192L73.344 8.992ZM79.396 38.176L78.116 11.808L121.252 11.552L122.532 99.744L91.556 99.36L91.172 37.536L79.396 38.176ZM126.149 37.792L124.869 11.296L171.589 9.75999L182.085 39.072L194.757 10.656L225.221 11.296L227.781 100.128H200.645L200.005 64.288L190.917 98.208L176.453 99.232L167.877 66.976L166.213 100.256L136.261 99.36L137.285 37.024L126.149 37.792ZM302.317 9.632L302.061 36L271.981 36.384V44.576H291.565V66.208L272.237 67.104L272.621 99.744L243.949 100L243.693 38.304H231.533L229.613 11.424L302.317 9.632ZM374.067 9.632L373.811 36L343.731 36.384V44.576H363.315V66.208L343.987 67.104L344.371 99.744L315.699 100L315.443 38.304H303.283L301.363 11.424L374.067 9.632Z" fill="#FFB800"/>
</g>
<path d="M73.344 8.992L75.3415 8.89262L75.2427 6.9068L73.2564 6.99392L73.344 8.992ZM74.624 34.72L74.8371 36.7086L76.7154 36.5074L76.6215 34.6206L74.624 34.72ZM38.784 38.56L38.5709 36.5714L36.9189 36.7484L36.79 38.4048L38.784 38.56ZM36.224 71.456L34.23 71.3008L34.0528 73.5777L36.3332 73.453L36.224 71.456ZM52.608 70.56L52.7172 72.557L54.8452 72.4406L54.5941 70.3244L52.608 70.56ZM51.712 63.008L53.6981 62.7724L53.4814 60.9458L51.6431 61.0092L51.712 63.008ZM44.288 63.264L42.2975 63.0694L42.0754 65.3415L44.3569 65.2628L44.288 63.264ZM45.952 46.24L45.8391 44.2432L44.1282 44.3399L43.9615 46.0454L45.952 46.24ZM75.392 44.576L77.3884 44.4556L77.2684 42.4667L75.2791 42.5792L75.392 44.576ZM78.72 99.744L78.7519 101.744L80.8423 101.71L80.7164 99.6236L78.72 99.744ZM54.656 100.128L52.6659 100.327L52.8489 102.157L54.6879 102.128L54.656 100.128ZM54.272 96.288L56.2621 96.089L56.0581 94.0492L54.0239 94.3034L54.272 96.288ZM23.552 100.128L22.2825 101.673L22.9469 102.219L23.8001 102.113L23.552 100.128ZM5.632 85.408L3.64302 85.1983L3.5301 86.2697L4.36252 86.9535L5.632 85.408ZM10.624 38.048L12.613 38.2576L12.8635 35.8805L10.4795 36.0532L10.624 38.048ZM1.792 38.688L-0.205182 38.7941L-0.096989 40.8301L1.93655 40.6828L1.792 38.688ZM0.384 12.192L0.296365 10.1939L-1.7203 10.2824L-1.61318 12.2981L0.384 12.192ZM71.3465 9.09138L72.6265 34.8194L76.6215 34.6206L75.3415 8.89262L71.3465 9.09138ZM74.4109 32.7314L38.5709 36.5714L38.9971 40.5486L74.8371 36.7086L74.4109 32.7314ZM36.79 38.4048L34.23 71.3008L38.218 71.6112L40.778 38.7152L36.79 38.4048ZM36.3332 73.453L52.7172 72.557L52.4988 68.563L36.1148 69.459L36.3332 73.453ZM54.5941 70.3244L53.6981 62.7724L49.7259 63.2436L50.6219 70.7956L54.5941 70.3244ZM51.6431 61.0092L44.2191 61.2652L44.3569 65.2628L51.7809 65.0068L51.6431 61.0092ZM46.2785 63.4586L47.9425 46.4346L43.9615 46.0454L42.2975 63.0694L46.2785 63.4586ZM46.0649 48.2368L75.5049 46.5728L75.2791 42.5792L45.8391 44.2432L46.0649 48.2368ZM73.3956 44.6964L76.7236 99.8644L80.7164 99.6236L77.3884 44.4556L73.3956 44.6964ZM78.6881 97.7443L54.6241 98.1283L54.6879 102.128L78.7519 101.744L78.6881 97.7443ZM56.6461 99.929L56.2621 96.089L52.2819 96.487L52.6659 100.327L56.6461 99.929ZM54.0239 94.3034L23.3039 98.1434L23.8001 102.113L54.5201 98.2726L54.0239 94.3034ZM24.8215 98.5826L6.90148 83.8625L4.36252 86.9535L22.2825 101.673L24.8215 98.5826ZM7.62098 85.6176L12.613 38.2576L8.63502 37.8383L3.64302 85.1983L7.62098 85.6176ZM10.4795 36.0532L1.64745 36.6932L1.93655 40.6828L10.7685 40.0428L10.4795 36.0532ZM3.78918 38.5819L2.38118 12.0859L-1.61318 12.2981L-0.205182 38.7941L3.78918 38.5819ZM0.471635 14.1901L73.4316 10.9901L73.2564 6.99392L0.296365 10.1939L0.471635 14.1901ZM79.396 38.176L77.3984 38.273L77.4959 40.2822L79.5045 40.173L79.396 38.176ZM78.116 11.808L78.1041 9.80803L76.0172 9.82042L76.1184 11.905L78.116 11.808ZM121.252 11.552L123.252 11.523L123.223 9.54026L121.24 9.55203L121.252 11.552ZM122.532 99.744L122.507 101.744L124.562 101.769L124.532 99.715L122.532 99.744ZM91.556 99.36L89.556 99.3724L89.5682 101.336L91.5312 101.36L91.556 99.36ZM91.172 37.536L93.172 37.5236L93.1589 35.4251L91.0635 35.5389L91.172 37.536ZM81.3936 38.079L80.1136 11.711L76.1184 11.905L77.3984 38.273L81.3936 38.079ZM78.1279 13.808L121.264 13.552L121.24 9.55203L78.1041 9.80803L78.1279 13.808ZM119.252 11.581L120.532 99.773L124.532 99.715L123.252 11.523L119.252 11.581ZM122.557 97.7442L91.5808 97.3602L91.5312 101.36L122.507 101.744L122.557 97.7442ZM93.556 99.3476L93.172 37.5236L89.172 37.5484L89.556 99.3724L93.556 99.3476ZM91.0635 35.5389L79.2875 36.1789L79.5045 40.173L91.2805 39.533L91.0635 35.5389ZM126.149 37.792L124.151 37.8885L124.25 39.9277L126.287 39.7873L126.149 37.792ZM124.869 11.296L124.803 9.29708L122.773 9.36382L122.871 11.3925L124.869 11.296ZM171.589 9.75999L173.472 9.08576L172.98 7.71317L171.523 7.76107L171.589 9.75999ZM182.085 39.072L180.202 39.7462L181.882 44.4378L183.912 39.8866L182.085 39.072ZM194.757 10.656L194.799 8.65644L193.471 8.62855L192.93 9.84143L194.757 10.656ZM225.221 11.296L227.22 11.2384L227.165 9.3364L225.263 9.29644L225.221 11.296ZM227.781 100.128V102.128H229.839L229.78 100.07L227.781 100.128ZM200.645 100.128L198.645 100.164L198.68 102.128H200.645V100.128ZM200.005 64.288L202.005 64.2523L198.073 63.7704L200.005 64.288ZM190.917 98.208L191.058 100.203L192.48 100.102L192.849 98.7256L190.917 98.208ZM176.453 99.232L174.52 99.7459L174.945 101.344L176.594 101.227L176.453 99.232ZM167.877 66.976L169.81 66.4621L165.88 66.8761L167.877 66.976ZM166.213 100.256L166.153 102.255L168.113 102.314L168.211 100.356L166.213 100.256ZM136.261 99.36L134.261 99.3271L134.229 101.3L136.201 101.359L136.261 99.36ZM137.285 37.024L139.285 37.0568L139.321 34.8789L137.147 35.0287L137.285 37.024ZM128.147 37.6955L126.867 11.1995L122.871 11.3925L124.151 37.8885L128.147 37.6955ZM124.935 13.2949L171.655 11.7589L171.523 7.76107L124.803 9.29708L124.935 13.2949ZM169.706 10.4342L180.202 39.7462L183.968 38.3978L173.472 9.08576L169.706 10.4342ZM183.912 39.8866L196.584 11.4706L192.93 9.84143L180.258 38.2574L183.912 39.8866ZM194.715 12.6556L225.179 13.2956L225.263 9.29644L194.799 8.65644L194.715 12.6556ZM223.222 11.3536L225.782 100.186L229.78 100.07L227.22 11.2384L223.222 11.3536ZM227.781 98.128H200.645V102.128H227.781V98.128ZM202.645 100.092L202.005 64.2523L198.005 64.3237L198.645 100.164L202.645 100.092ZM198.073 63.7704L188.985 97.6904L192.849 98.7256L201.937 64.8056L198.073 63.7704ZM190.776 96.213L176.312 97.237L176.594 101.227L191.058 100.203L190.776 96.213ZM178.386 98.7181L169.81 66.4621L165.944 67.4899L174.52 99.7459L178.386 98.7181ZM165.88 66.8761L164.215 100.156L168.211 100.356L169.875 67.0759L165.88 66.8761ZM166.273 98.2569L136.321 97.3609L136.201 101.359L166.153 102.255L166.273 98.2569ZM138.261 99.3929L139.285 37.0568L135.285 36.9911L134.261 99.3271L138.261 99.3929ZM137.147 35.0287L126.011 35.7967L126.287 39.7873L137.423 39.0193L137.147 35.0287ZM302.317 9.632L304.317 9.65141L304.337 7.5816L302.268 7.6326L302.317 9.632ZM302.061 36L302.087 37.9998L304.042 37.9749L304.061 36.0194L302.061 36ZM271.981 36.384L271.955 34.3842L269.981 34.4094V36.384H271.981ZM271.981 44.576H269.981V46.576H271.981V44.576ZM291.565 44.576H293.565V42.576H291.565V44.576ZM291.565 66.208L291.658 68.2059L293.565 68.1174V66.208H291.565ZM272.237 67.104L272.144 65.1061L270.214 65.1956L270.237 67.1275L272.237 67.104ZM272.621 99.744L272.639 101.744L274.644 101.726L274.621 99.7205L272.621 99.744ZM243.949 100L241.949 100.008L241.957 102.018L243.967 102L243.949 100ZM243.693 38.304L245.693 38.2957L245.685 36.304H243.693V38.304ZM231.533 38.304L229.538 38.4465L229.671 40.304H231.533V38.304ZM229.613 11.424L229.564 9.4246L227.469 9.47624L227.618 11.5665L229.613 11.424ZM300.317 9.61258L300.061 35.9806L304.061 36.0194L304.317 9.65141L300.317 9.61258ZM302.035 34.0002L271.955 34.3842L272.007 38.3838L302.087 37.9998L302.035 34.0002ZM269.981 36.384V44.576H273.981V36.384H269.981ZM271.981 46.576H291.565V42.576H271.981V46.576ZM289.565 44.576V66.208H293.565V44.576H289.565ZM291.472 64.2101L272.144 65.1061L272.33 69.1019L291.658 68.2059L291.472 64.2101ZM270.237 67.1275L270.621 99.7675L274.621 99.7205L274.237 67.0805L270.237 67.1275ZM272.603 97.7441L243.931 98.0001L243.967 102L272.639 101.744L272.603 97.7441ZM245.949 99.9917L245.693 38.2957L241.693 38.3123L241.949 100.008L245.949 99.9917ZM243.693 36.304H231.533V40.304H243.693V36.304ZM233.528 38.1615L231.608 11.2815L227.618 11.5665L229.538 38.4465L233.528 38.1615ZM229.662 13.4234L302.366 11.6314L302.268 7.6326L229.564 9.4246L229.662 13.4234ZM374.067 9.632L376.067 9.65141L376.087 7.5816L374.018 7.6326L374.067 9.632ZM373.811 36L373.837 37.9998L375.792 37.9749L375.811 36.0194L373.811 36ZM343.731 36.384L343.705 34.3842L341.731 34.4094V36.384H343.731ZM343.731 44.576H341.731V46.576H343.731V44.576ZM363.315 44.576H365.315V42.576H363.315V44.576ZM363.315 66.208L363.408 68.2059L365.315 68.1174V66.208H363.315ZM343.987 67.104L343.894 65.1061L341.964 65.1956L341.987 67.1275L343.987 67.104ZM344.371 99.744L344.389 101.744L346.394 101.726L346.371 99.7205L344.371 99.744ZM315.699 100L313.699 100.008L313.707 102.018L315.717 102L315.699 100ZM315.443 38.304L317.443 38.2957L317.435 36.304H315.443V38.304ZM303.283 38.304L301.288 38.4465L301.421 40.304H303.283V38.304ZM301.363 11.424L301.314 9.4246L299.219 9.47624L299.368 11.5665L301.363 11.424ZM372.067 9.61258L371.811 35.9806L375.811 36.0194L376.067 9.65141L372.067 9.61258ZM373.785 34.0002L343.705 34.3842L343.757 38.3838L373.837 37.9998L373.785 34.0002ZM341.731 36.384V44.576H345.731V36.384H341.731ZM343.731 46.576H363.315V42.576H343.731V46.576ZM361.315 44.576V66.208H365.315V44.576H361.315ZM363.222 64.2101L343.894 65.1061L344.08 69.1019L363.408 68.2059L363.222 64.2101ZM341.987 67.1275L342.371 99.7675L346.371 99.7205L345.987 67.0805L341.987 67.1275ZM344.353 97.7441L315.681 98.0001L315.717 102L344.389 101.744L344.353 97.7441ZM317.699 99.9917L317.443 38.2957L313.443 38.3123L313.699 100.008L317.699 99.9917ZM315.443 36.304H303.283V40.304H315.443V36.304ZM305.278 38.1615L303.358 11.2815L299.368 11.5665L301.288 38.4465L305.278 38.1615ZM301.412 13.4234L374.116 11.6314L374.018 7.6326L301.314 9.4246L301.412 13.4234Z" fill="black" mask="url(#path-1-outside-1_43_7)"/>
<mask id="path-3-outside-2_43_7" maskUnits="userSpaceOnUse" x="479" y="28" width="226" height="69" fill="black">
<rect fill="white" x="479" y="28" width="226" height="69"/>
<path d="M492.188 30.625H509.688C510.646 30.625 511.271 31.3333 511.562 32.75V39H517.688C519.125 39 519.917 39.875 520.062 41.625V58.25C520.062 59.8333 519.146 60.625 517.312 60.625H509.438C507.771 60.625 506.938 59.6667 506.938 57.75V52.125H494.688V81.375H506.938V77.5H500.812C499.312 77.2292 498.562 76.5625 498.562 75.5V66.375C498.562 65.2708 499.479 64.6042 501.312 64.375H517.312C519.146 64.375 520.062 65.1667 520.062 66.75V92.125C519.833 93.625 519.125 94.375 517.938 94.375H483.562C482.417 94.375 481.75 93.5 481.562 91.75V41.75C481.562 39.9167 482.479 39 484.312 39H490.062V32.875C490.292 31.375 491 30.625 492.188 30.625ZM553.107 30.625C554.295 30.625 554.962 31.625 555.107 33.625V39H561.107C562.691 39.2708 563.482 40.0208 563.482 41.25V92.25C563.17 93.6667 562.545 94.375 561.607 94.375H552.357C551.316 94.1667 550.691 93.5417 550.482 92.5V77.5H538.107V92.25C537.795 93.6667 537.17 94.375 536.232 94.375H526.982C525.941 94.1667 525.316 93.5417 525.107 92.5V41.125C525.107 39.9167 525.899 39.2083 527.482 39H533.482V33.25C533.482 31.7917 534.107 30.9167 535.357 30.625H553.107ZM538.107 52.125V64.375H550.482V52.125H538.107ZM578.902 30.625H588.152C589.194 30.8333 589.819 31.4583 590.027 32.5V39H593.902V32.875C594.132 31.375 594.84 30.625 596.027 30.625H604.902C606.111 30.625 606.819 31.4167 607.027 33V39H612.777C614.048 39 614.923 39.5417 615.402 40.625V92.4688C615.194 93.5312 614.569 94.1562 613.527 94.3438H604.277C603.34 94.3438 602.715 93.6354 602.402 92.2188V52.125H598.527V92.2188C598.277 93.6354 597.569 94.3438 596.402 94.3438H587.402C586.215 94.3438 585.548 93.3438 585.402 91.3438V52.125H581.652V91.7188C581.652 93.0104 581.111 93.8854 580.027 94.3438H570.652C569.465 94.3438 568.757 93.5938 568.527 92.0938V41.375C568.777 39.7917 569.569 39 570.902 39H577.027V32.75C577.34 31.3333 577.965 30.625 578.902 30.625ZM630.822 30.625H648.322C649.51 30.625 650.218 31.375 650.447 32.875V39H656.197C658.031 39 658.947 39.9167 658.947 41.75V57.875C658.947 59.7083 658.031 60.625 656.197 60.625H648.572C646.739 60.625 645.822 59.8333 645.822 58.25V52.125H633.572V64.375H639.197C641.031 64.6042 641.947 65.2708 641.947 66.375V75.375C641.947 76.5625 641.197 77.2708 639.697 77.5H633.572V81.375H645.822V66.75C645.822 65.1667 646.739 64.375 648.572 64.375H656.197C658.031 64.375 658.947 65.2917 658.947 67.125V91.75C658.947 93.0208 658.406 93.8958 657.322 94.375H622.572C621.385 94.375 620.677 93.625 620.447 92.125V41.375C620.697 39.7917 621.489 39 622.822 39H628.947V32.75C629.239 31.3333 629.864 30.625 630.822 30.625ZM674.367 30.625H691.867C693.055 30.625 693.763 31.375 693.992 32.875V39H699.742C701.576 39 702.492 39.9167 702.492 41.75V57.75C702.492 59.6667 701.534 60.625 699.617 60.625H692.117C690.284 60.625 689.367 59.8333 689.367 58.25V52.125H677.117V64.375H699.617C701.534 64.375 702.492 65.3333 702.492 67.25V91.5938C702.326 93.4271 701.659 94.3438 700.492 94.3438H666.117C664.93 94.3438 664.222 93.5938 663.992 92.0938V83.625C664.305 82.125 664.972 81.375 665.992 81.375H689.367V77.5H666.242C664.742 77.2708 663.992 76.5208 663.992 75.25V41.25C663.992 40.0208 664.784 39.2708 666.367 39H672.492V32.5C672.701 31.4583 673.326 30.8333 674.367 30.625Z"/>
</mask>
<g filter="url(#filter1_i_43_7)">
<path d="M492.188 30.625H509.688C510.646 30.625 511.271 31.3333 511.562 32.75V39H517.688C519.125 39 519.917 39.875 520.062 41.625V58.25C520.062 59.8333 519.146 60.625 517.312 60.625H509.438C507.771 60.625 506.938 59.6667 506.938 57.75V52.125H494.688V81.375H506.938V77.5H500.812C499.312 77.2292 498.562 76.5625 498.562 75.5V66.375C498.562 65.2708 499.479 64.6042 501.312 64.375H517.312C519.146 64.375 520.062 65.1667 520.062 66.75V92.125C519.833 93.625 519.125 94.375 517.938 94.375H483.562C482.417 94.375 481.75 93.5 481.562 91.75V41.75C481.562 39.9167 482.479 39 484.312 39H490.062V32.875C490.292 31.375 491 30.625 492.188 30.625ZM553.107 30.625C554.295 30.625 554.962 31.625 555.107 33.625V39H561.107C562.691 39.2708 563.482 40.0208 563.482 41.25V92.25C563.17 93.6667 562.545 94.375 561.607 94.375H552.357C551.316 94.1667 550.691 93.5417 550.482 92.5V77.5H538.107V92.25C537.795 93.6667 537.17 94.375 536.232 94.375H526.982C525.941 94.1667 525.316 93.5417 525.107 92.5V41.125C525.107 39.9167 525.899 39.2083 527.482 39H533.482V33.25C533.482 31.7917 534.107 30.9167 535.357 30.625H553.107ZM538.107 52.125V64.375H550.482V52.125H538.107ZM578.902 30.625H588.152C589.194 30.8333 589.819 31.4583 590.027 32.5V39H593.902V32.875C594.132 31.375 594.84 30.625 596.027 30.625H604.902C606.111 30.625 606.819 31.4167 607.027 33V39H612.777C614.048 39 614.923 39.5417 615.402 40.625V92.4688C615.194 93.5312 614.569 94.1562 613.527 94.3438H604.277C603.34 94.3438 602.715 93.6354 602.402 92.2188V52.125H598.527V92.2188C598.277 93.6354 597.569 94.3438 596.402 94.3438H587.402C586.215 94.3438 585.548 93.3438 585.402 91.3438V52.125H581.652V91.7188C581.652 93.0104 581.111 93.8854 580.027 94.3438H570.652C569.465 94.3438 568.757 93.5938 568.527 92.0938V41.375C568.777 39.7917 569.569 39 570.902 39H577.027V32.75C577.34 31.3333 577.965 30.625 578.902 30.625ZM630.822 30.625H648.322C649.51 30.625 650.218 31.375 650.447 32.875V39H656.197C658.031 39 658.947 39.9167 658.947 41.75V57.875C658.947 59.7083 658.031 60.625 656.197 60.625H648.572C646.739 60.625 645.822 59.8333 645.822 58.25V52.125H633.572V64.375H639.197C641.031 64.6042 641.947 65.2708 641.947 66.375V75.375C641.947 76.5625 641.197 77.2708 639.697 77.5H633.572V81.375H645.822V66.75C645.822 65.1667 646.739 64.375 648.572 64.375H656.197C658.031 64.375 658.947 65.2917 658.947 67.125V91.75C658.947 93.0208 658.406 93.8958 657.322 94.375H622.572C621.385 94.375 620.677 93.625 620.447 92.125V41.375C620.697 39.7917 621.489 39 622.822 39H628.947V32.75C629.239 31.3333 629.864 30.625 630.822 30.625ZM674.367 30.625H691.867C693.055 30.625 693.763 31.375 693.992 32.875V39H699.742C701.576 39 702.492 39.9167 702.492 41.75V57.75C702.492 59.6667 701.534 60.625 699.617 60.625H692.117C690.284 60.625 689.367 59.8333 689.367 58.25V52.125H677.117V64.375H699.617C701.534 64.375 702.492 65.3333 702.492 67.25V91.5938C702.326 93.4271 701.659 94.3438 700.492 94.3438H666.117C664.93 94.3438 664.222 93.5938 663.992 92.0938V83.625C664.305 82.125 664.972 81.375 665.992 81.375H689.367V77.5H666.242C664.742 77.2708 663.992 76.5208 663.992 75.25V41.25C663.992 40.0208 664.784 39.2708 666.367 39H672.492V32.5C672.701 31.4583 673.326 30.8333 674.367 30.625Z" fill="white"/>
</g>
<path d="M511.562 32.75H513.562V32.5463L513.521 32.3467L511.562 32.75ZM511.562 39H509.562V41H511.562V39ZM520.062 41.625H522.062V41.5418L522.056 41.4589L520.062 41.625ZM506.938 52.125H508.938V50.125H506.938V52.125ZM494.688 52.125V50.125H492.688V52.125H494.688ZM494.688 81.375H492.688V83.375H494.688V81.375ZM506.938 81.375V83.375H508.938V81.375H506.938ZM506.938 77.5H508.938V75.5H506.938V77.5ZM500.812 77.5L500.457 79.4682L500.633 79.5H500.812V77.5ZM501.312 64.375V62.375H501.188L501.064 62.3904L501.312 64.375ZM520.062 92.125L522.04 92.427L522.062 92.2769V92.125H520.062ZM481.562 91.75H479.562V91.8568L479.574 91.9631L481.562 91.75ZM490.062 39V41H492.062V39H490.062ZM490.062 32.875L488.085 32.5729L488.062 32.7231V32.875H490.062ZM492.188 32.625H509.688V28.625H492.188V32.625ZM509.688 32.625C509.675 32.625 509.612 32.6214 509.527 32.5834C509.441 32.5452 509.391 32.4974 509.375 32.4795C509.365 32.4675 509.396 32.4986 509.445 32.6125C509.494 32.7265 509.552 32.9011 509.604 33.1533L513.521 32.3467C513.34 31.4633 513.009 30.5518 512.375 29.833C511.676 29.0415 510.731 28.625 509.688 28.625V32.625ZM509.562 32.75V39H513.562V32.75H509.562ZM511.562 41H517.688V37H511.562V41ZM517.688 41C517.846 41 517.909 41.0241 517.914 41.0258C517.916 41.0266 517.909 41.024 517.898 41.0164C517.887 41.0088 517.879 41.0014 517.876 40.9981C517.865 40.9855 518.016 41.1494 518.069 41.7911L522.056 41.4589C521.963 40.3506 521.645 39.202 520.842 38.3144C519.986 37.3681 518.838 37 517.688 37V41ZM518.062 41.625V58.25H522.062V41.625H518.062ZM518.062 58.25C518.062 58.4575 518.032 58.5502 518.025 58.5689C518.022 58.5756 518.036 58.5453 518.068 58.5176C518.119 58.4731 517.987 58.625 517.312 58.625V62.625C518.471 62.625 519.714 62.3811 520.682 61.5449C521.707 60.6603 522.062 59.4326 522.062 58.25H518.062ZM517.312 58.625H509.438V62.625H517.312V58.625ZM509.438 58.625C509.208 58.625 509.095 58.5915 509.06 58.5778C509.036 58.5687 509.053 58.5728 509.072 58.5939C509.099 58.6248 508.938 58.4633 508.938 57.75H504.938C504.938 58.9534 505.193 60.2294 506.053 61.2186C506.96 62.2613 508.217 62.625 509.438 62.625V58.625ZM508.938 57.75V52.125H504.938V57.75H508.938ZM506.938 50.125H494.688V54.125H506.938V50.125ZM492.688 52.125V81.375H496.688V52.125H492.688ZM494.688 83.375H506.938V79.375H494.688V83.375ZM508.938 81.375V77.5H504.938V81.375H508.938ZM506.938 75.5H500.812V79.5H506.938V75.5ZM501.168 75.5318C500.901 75.4837 500.717 75.4264 500.597 75.3765C500.478 75.3269 500.444 75.2937 500.454 75.3021C500.469 75.316 500.508 75.3588 500.538 75.4268C500.566 75.492 500.562 75.5267 500.562 75.5H496.562C496.562 76.5645 496.967 77.5543 497.796 78.2917C498.553 78.9647 499.519 79.2988 500.457 79.4682L501.168 75.5318ZM500.562 75.5V66.375H496.562V75.5H500.562ZM500.562 66.375C500.562 66.384 500.558 66.456 500.511 66.5483C500.464 66.6388 500.414 66.6733 500.426 66.6643C500.447 66.6496 500.532 66.5946 500.729 66.5306C500.924 66.467 501.196 66.4052 501.561 66.3596L501.064 62.3904C500.001 62.5234 498.926 62.8094 498.074 63.4294C497.114 64.1273 496.562 65.1632 496.562 66.375H500.562ZM501.312 66.375H517.312V62.375H501.312V66.375ZM517.312 66.375C517.987 66.375 518.119 66.5269 518.068 66.4824C518.036 66.4547 518.022 66.4244 518.025 66.4311C518.032 66.4498 518.062 66.5425 518.062 66.75H522.062C522.062 65.5674 521.707 64.3397 520.682 63.4551C519.714 62.6189 518.471 62.375 517.312 62.375V66.375ZM518.062 66.75V92.125H522.062V66.75H518.062ZM518.085 91.823C518.005 92.3507 517.877 92.469 517.905 92.4393C517.927 92.4166 517.964 92.3899 518.003 92.3746C518.035 92.3618 518.023 92.375 517.938 92.375V96.375C518.991 96.375 520.023 96.0224 520.813 95.1857C521.55 94.406 521.891 93.3993 522.04 92.427L518.085 91.823ZM517.938 92.375H483.562V96.375H517.938V92.375ZM483.562 92.375C483.535 92.375 483.583 92.3712 483.662 92.4098C483.745 92.4497 483.788 92.4988 483.794 92.5067C483.794 92.5071 483.783 92.4923 483.764 92.4552C483.746 92.4179 483.721 92.3609 483.695 92.2796C483.641 92.1136 483.587 91.8722 483.551 91.5369L479.574 91.9631C479.685 93.0038 479.962 94.0777 480.612 94.9308C481.342 95.8885 482.396 96.375 483.562 96.375V92.375ZM483.562 91.75V41.75H479.562V91.75H483.562ZM483.562 41.75C483.562 41.1416 483.713 41.0527 483.664 41.1017C483.615 41.1507 483.704 41 484.312 41V37C483.088 37 481.801 37.3076 480.836 38.2733C479.87 39.239 479.562 40.525 479.562 41.75H483.562ZM484.312 41H490.062V37H484.312V41ZM492.062 39V32.875H488.062V39H492.062ZM492.04 33.1771C492.12 32.6493 492.248 32.531 492.22 32.5607C492.198 32.5834 492.161 32.6101 492.122 32.6254C492.09 32.6382 492.102 32.625 492.188 32.625V28.625C491.134 28.625 490.102 28.9776 489.312 29.8143C488.575 30.594 488.234 31.6007 488.085 32.5729L492.04 33.1771ZM555.107 33.625H557.107V33.5522L557.102 33.4796L555.107 33.625ZM555.107 39H553.107V41H555.107V39ZM561.107 39L561.445 37.0286L561.277 37H561.107V39ZM563.482 92.25L565.436 92.6808L565.482 92.468V92.25H563.482ZM552.357 94.375L551.965 96.3362L552.159 96.375H552.357V94.375ZM550.482 92.5H548.482V92.698L548.521 92.8922L550.482 92.5ZM550.482 77.5H552.482V75.5H550.482V77.5ZM538.107 77.5V75.5H536.107V77.5H538.107ZM538.107 92.25L540.061 92.6808L540.107 92.468V92.25H538.107ZM526.982 94.375L526.59 96.3362L526.784 96.375H526.982V94.375ZM525.107 92.5H523.107V92.698L523.146 92.8922L525.107 92.5ZM527.482 39V37H527.351L527.222 37.0171L527.482 39ZM533.482 39V41H535.482V39H533.482ZM535.357 30.625V28.625H535.127L534.903 28.6773L535.357 30.625ZM538.107 52.125V50.125H536.107V52.125H538.107ZM538.107 64.375H536.107V66.375H538.107V64.375ZM550.482 64.375V66.375H552.482V64.375H550.482ZM550.482 52.125H552.482V50.125H550.482V52.125ZM553.107 32.625C553.116 32.625 553.047 32.6243 552.951 32.5728C552.857 32.5219 552.823 32.4678 552.834 32.4844C552.852 32.5107 552.909 32.6111 552.97 32.8353C553.03 33.0574 553.083 33.3634 553.113 33.7704L557.102 33.4796C557.019 32.3389 556.775 31.1852 556.162 30.2656C555.463 29.2173 554.38 28.625 553.107 28.625V32.625ZM553.107 33.625V39H557.107V33.625H553.107ZM555.107 41H561.107V37H555.107V41ZM560.77 40.9714C561.046 41.0186 561.235 41.0781 561.357 41.1304C561.476 41.1818 561.515 41.219 561.513 41.2175C561.506 41.211 561.488 41.1881 561.477 41.1608C561.468 41.1386 561.482 41.1586 561.482 41.25H565.482C565.482 40.1631 565.111 39.1162 564.264 38.3137C563.475 37.5663 562.452 37.2009 561.445 37.0286L560.77 40.9714ZM561.482 41.25V92.25H565.482V41.25H561.482ZM561.529 91.8192C561.473 92.0745 561.412 92.2534 561.36 92.3724C561.307 92.4915 561.273 92.528 561.28 92.5205C561.291 92.5074 561.339 92.4601 561.426 92.4206C561.514 92.381 561.584 92.375 561.607 92.375V96.375C562.655 96.375 563.59 95.9477 564.279 95.167C564.905 94.4579 565.242 93.5581 565.436 92.6808L561.529 91.8192ZM561.607 92.375H552.357V96.375H561.607V92.375ZM552.75 92.4138C552.537 92.3713 552.503 92.3169 552.522 92.3358C552.541 92.3546 552.486 92.3207 552.444 92.1078L548.521 92.8922C548.687 93.721 549.049 94.5204 549.693 95.1642C550.337 95.8081 551.137 96.1704 551.965 96.3362L552.75 92.4138ZM552.482 92.5V77.5H548.482V92.5H552.482ZM550.482 75.5H538.107V79.5H550.482V75.5ZM536.107 77.5V92.25H540.107V77.5H536.107ZM536.154 91.8192C536.098 92.0745 536.037 92.2534 535.985 92.3724C535.932 92.4915 535.898 92.528 535.905 92.5205C535.916 92.5074 535.964 92.4601 536.051 92.4206C536.139 92.381 536.209 92.375 536.232 92.375V96.375C537.28 96.375 538.215 95.9477 538.904 95.167C539.53 94.4579 539.867 93.5581 540.061 92.6808L536.154 91.8192ZM536.232 92.375H526.982V96.375H536.232V92.375ZM527.375 92.4138C527.162 92.3713 527.128 92.3169 527.147 92.3358C527.166 92.3546 527.111 92.3207 527.069 92.1078L523.146 92.8922C523.312 93.721 523.674 94.5204 524.318 95.1642C524.962 95.8081 525.762 96.1704 526.59 96.3362L527.375 92.4138ZM527.107 92.5V41.125H523.107V92.5H527.107ZM527.107 41.125C527.107 41.0421 527.121 41.0369 527.104 41.076C527.086 41.1213 527.055 41.1596 527.035 41.178C527.021 41.1905 527.049 41.1602 527.164 41.1158C527.281 41.0706 527.467 41.0193 527.743 40.9829L527.222 37.0171C526.22 37.1489 525.179 37.4708 524.368 38.197C523.487 38.9848 523.107 40.0385 523.107 41.125H527.107ZM527.482 41H533.482V37H527.482V41ZM535.482 39V33.25H531.482V39H535.482ZM535.482 33.25C535.482 33.0253 535.507 32.8754 535.532 32.7831C535.555 32.6946 535.578 32.6637 535.579 32.6625C535.58 32.6613 535.58 32.661 535.58 32.6612C535.58 32.6613 535.579 32.6614 535.58 32.6613C535.58 32.6612 535.581 32.6604 535.583 32.6589C535.585 32.6573 535.588 32.6547 535.594 32.6512C535.615 32.638 535.679 32.6038 535.812 32.5727L534.903 28.6773C533.901 28.9111 532.972 29.4306 532.324 30.3375C531.696 31.2162 531.482 32.2497 531.482 33.25H535.482ZM535.357 32.625H553.107V28.625H535.357V32.625ZM536.107 52.125V64.375H540.107V52.125H536.107ZM538.107 66.375H550.482V62.375H538.107V66.375ZM552.482 64.375V52.125H548.482V64.375H552.482ZM550.482 50.125H538.107V54.125H550.482V50.125ZM588.152 30.625L588.545 28.6638L588.351 28.625H588.152V30.625ZM590.027 32.5H592.027V32.302L591.989 32.1078L590.027 32.5ZM590.027 39H588.027V41H590.027V39ZM593.902 39V41H595.902V39H593.902ZM593.902 32.875L591.925 32.5729L591.902 32.7231V32.875H593.902ZM607.027 33H609.027V32.869L609.01 32.7391L607.027 33ZM607.027 39H605.027V41H607.027V39ZM615.402 40.625H617.402V40.2024L617.232 39.816L615.402 40.625ZM615.402 92.4688L617.365 92.8536L617.402 92.663V92.4688H615.402ZM613.527 94.3438V96.3438H613.706L613.882 96.3121L613.527 94.3438ZM602.402 92.2188H600.402V92.4367L600.449 92.6496L602.402 92.2188ZM602.402 52.125H604.402V50.125H602.402V52.125ZM598.527 52.125V50.125H596.527V52.125H598.527ZM598.527 92.2188L600.497 92.5663L600.527 92.3939V92.2188H598.527ZM585.402 91.3438H583.402V91.4166L583.408 91.4892L585.402 91.3438ZM585.402 52.125H587.402V50.125H585.402V52.125ZM581.652 52.125V50.125H579.652V52.125H581.652ZM580.027 94.3438V96.3438H580.433L580.807 96.1857L580.027 94.3438ZM568.527 92.0938H566.527V92.2456L566.55 92.3958L568.527 92.0938ZM568.527 41.375L566.552 41.0631L566.527 41.2181V41.375H568.527ZM577.027 39V41H579.027V39H577.027ZM577.027 32.75L575.074 32.3192L575.027 32.532V32.75H577.027ZM578.902 32.625H588.152V28.625H578.902V32.625ZM587.76 32.5862C587.973 32.6287 588.007 32.6831 587.988 32.6642C587.969 32.6454 588.024 32.6793 588.066 32.8922L591.989 32.1078C591.823 31.279 591.461 30.4796 590.817 29.8358C590.173 29.1919 589.373 28.8296 588.545 28.6638L587.76 32.5862ZM588.027 32.5V39H592.027V32.5H588.027ZM590.027 41H593.902V37H590.027V41ZM595.902 39V32.875H591.902V39H595.902ZM595.88 33.1771C595.96 32.6493 596.088 32.531 596.06 32.5607C596.038 32.5834 596.001 32.6101 595.962 32.6254C595.93 32.6382 595.942 32.625 596.027 32.625V28.625C594.974 28.625 593.942 28.9776 593.152 29.8143C592.415 30.594 592.074 31.6007 591.925 32.5729L595.88 33.1771ZM596.027 32.625H604.902V28.625H596.027V32.625ZM604.902 32.625C604.985 32.625 604.991 32.6381 604.951 32.622C604.906 32.6032 604.868 32.5729 604.85 32.5523C604.837 32.5383 604.867 32.5661 604.912 32.6811C604.957 32.7982 605.008 32.9844 605.045 33.2609L609.01 32.7391C608.879 31.7372 608.557 30.6968 607.83 29.8852C607.043 29.0047 605.989 28.625 604.902 28.625V32.625ZM605.027 33V39H609.027V33H605.027ZM607.027 41H612.777V37H607.027V41ZM612.777 41C613.128 41 613.28 41.073 613.334 41.1068C613.379 41.1347 613.471 41.2036 613.573 41.434L617.232 39.816C616.854 38.9631 616.27 38.2195 615.44 37.7057C614.619 37.1978 613.698 37 612.777 37V41ZM613.402 40.625V92.4688H617.402V40.625H613.402ZM613.44 92.0839C613.395 92.3137 613.337 92.3463 613.363 92.3202C613.371 92.3121 613.373 92.3141 613.354 92.3233C613.333 92.3338 613.278 92.3566 613.173 92.3754L613.882 96.3121C614.723 96.1606 615.538 95.8027 616.192 95.1486C616.843 94.4974 617.202 93.6863 617.365 92.8536L613.44 92.0839ZM613.527 92.3438H604.277V96.3438H613.527V92.3438ZM604.277 92.3438C604.301 92.3438 604.371 92.3497 604.459 92.3894C604.546 92.4288 604.594 92.4761 604.605 92.4893C604.612 92.4968 604.578 92.4602 604.525 92.3412C604.473 92.2222 604.412 92.0433 604.356 91.7879L600.449 92.6496C600.643 93.5269 600.98 94.4266 601.606 95.1357C602.295 95.9164 603.23 96.3438 604.277 96.3438V92.3438ZM604.402 92.2188V52.125H600.402V92.2188H604.402ZM602.402 50.125H598.527V54.125H602.402V50.125ZM596.527 52.125V92.2188H600.527V52.125H596.527ZM596.558 91.8712C596.474 92.3444 596.357 92.4357 596.395 92.3983C596.418 92.3746 596.454 92.3517 596.485 92.34C596.51 92.3304 596.492 92.3438 596.402 92.3438V96.3438C597.422 96.3438 598.432 96.0178 599.223 95.2267C599.969 94.481 600.331 93.5098 600.497 92.5663L596.558 91.8712ZM596.402 92.3438H587.402V96.3438H596.402V92.3438ZM587.402 92.3438C587.394 92.3438 587.463 92.3445 587.559 92.3959C587.653 92.4469 587.687 92.5009 587.676 92.4844C587.658 92.4581 587.601 92.3576 587.54 92.1334C587.48 91.9114 587.427 91.6054 587.397 91.1983L583.408 91.4892C583.491 92.6299 583.735 93.7836 584.348 94.7031C585.047 95.7514 586.13 96.3438 587.402 96.3438V92.3438ZM587.402 91.3438V52.125H583.402V91.3438H587.402ZM585.402 50.125H581.652V54.125H585.402V50.125ZM579.652 52.125V91.7188H583.652V52.125H579.652ZM579.652 91.7188C579.652 92.0869 579.576 92.2413 579.546 92.291C579.523 92.3276 579.465 92.4101 579.248 92.5018L580.807 96.1857C581.673 95.8191 582.428 95.2349 582.947 94.3965C583.458 93.5712 583.652 92.6423 583.652 91.7188H579.652ZM580.027 92.3438H570.652V96.3438H580.027V92.3438ZM570.652 92.3438C570.567 92.3438 570.555 92.3305 570.587 92.3434C570.626 92.3586 570.663 92.3854 570.685 92.408C570.713 92.4377 570.585 92.3194 570.505 91.7917L566.55 92.3958C566.699 93.3681 567.04 94.3748 567.777 95.1545C568.567 95.9912 569.599 96.3438 570.652 96.3438V92.3438ZM570.527 92.0938V41.375H566.527V92.0938H570.527ZM570.503 41.6869C570.59 41.139 570.73 41.0008 570.723 41.008C570.715 41.0156 570.702 41.0227 570.702 41.0226C570.709 41.0201 570.766 41 570.902 41V37C569.814 37 568.736 37.3382 567.895 38.1795C567.096 38.9784 566.715 40.0277 566.552 41.0631L570.503 41.6869ZM570.902 41H577.027V37H570.902V41ZM579.027 39V32.75H575.027V39H579.027ZM578.981 33.1808C579.037 32.9255 579.098 32.7466 579.15 32.6276C579.203 32.5085 579.237 32.472 579.23 32.4795C579.219 32.4926 579.171 32.5399 579.084 32.5794C578.996 32.619 578.926 32.625 578.902 32.625V28.625C577.855 28.625 576.92 29.0523 576.231 29.833C575.605 30.5421 575.268 31.4419 575.074 32.3192L578.981 33.1808ZM650.447 32.875H652.447V32.7231L652.425 32.5729L650.447 32.875ZM650.447 39H648.447V41H650.447V39ZM645.822 52.125H647.822V50.125H645.822V52.125ZM633.572 52.125V50.125H631.572V52.125H633.572ZM633.572 64.375H631.572V66.375H633.572V64.375ZM639.197 64.375L639.446 62.3904L639.322 62.375H639.197V64.375ZM639.697 77.5V79.5H639.849L640 79.4771L639.697 77.5ZM633.572 77.5V75.5H631.572V77.5H633.572ZM633.572 81.375H631.572V83.375H633.572V81.375ZM645.822 81.375V83.375H647.822V81.375H645.822ZM657.322 94.375V96.375H657.745L658.132 96.2041L657.322 94.375ZM620.447 92.125H618.447V92.2769L618.47 92.427L620.447 92.125ZM620.447 41.375L618.472 41.0631L618.447 41.2181V41.375H620.447ZM628.947 39V41H630.947V39H628.947ZM628.947 32.75L626.989 32.3467L626.947 32.5463V32.75H628.947ZM630.822 32.625H648.322V28.625H630.822V32.625ZM648.322 32.625C648.408 32.625 648.42 32.6382 648.388 32.6254C648.349 32.6101 648.312 32.5834 648.29 32.5607C648.262 32.531 648.39 32.6493 648.47 33.1771L652.425 32.5729C652.276 31.6007 651.935 30.594 651.198 29.8143C650.408 28.9776 649.376 28.625 648.322 28.625V32.625ZM648.447 32.875V39H652.447V32.875H648.447ZM650.447 41H656.197V37H650.447V41ZM656.197 41C656.806 41 656.895 41.1507 656.846 41.1017C656.797 41.0527 656.947 41.1416 656.947 41.75H660.947C660.947 40.525 660.64 39.239 659.674 38.2733C658.709 37.3076 657.422 37 656.197 37V41ZM656.947 41.75V57.875H660.947V41.75H656.947ZM656.947 57.875C656.947 58.4834 656.797 58.5723 656.846 58.5233C656.895 58.4743 656.806 58.625 656.197 58.625V62.625C657.422 62.625 658.709 62.3174 659.674 61.3517C660.64 60.386 660.947 59.1 660.947 57.875H656.947ZM656.197 58.625H648.572V62.625H656.197V58.625ZM648.572 58.625C647.898 58.625 647.766 58.4731 647.817 58.5176C647.849 58.5453 647.863 58.5756 647.86 58.5689C647.853 58.5502 647.822 58.4575 647.822 58.25H643.822C643.822 59.4326 644.178 60.6603 645.203 61.5449C646.171 62.3811 647.414 62.625 648.572 62.625V58.625ZM647.822 58.25V52.125H643.822V58.25H647.822ZM645.822 50.125H633.572V54.125H645.822V50.125ZM631.572 52.125V64.375H635.572V52.125H631.572ZM633.572 66.375H639.197V62.375H633.572V66.375ZM638.949 66.3596C639.314 66.4052 639.586 66.467 639.781 66.5306C639.978 66.5946 640.063 66.6496 640.084 66.6643C640.096 66.6733 640.046 66.6388 639.999 66.5483C639.952 66.456 639.947 66.384 639.947 66.375H643.947C643.947 65.1632 643.396 64.1273 642.436 63.4294C641.584 62.8094 640.509 62.5234 639.446 62.3904L638.949 66.3596ZM639.947 66.375V75.375H643.947V66.375H639.947ZM639.947 75.375C639.947 75.4609 639.934 75.4725 639.947 75.4401C639.962 75.4015 639.989 75.3642 640.012 75.3428C640.041 75.3148 639.923 75.4423 639.395 75.5229L640 79.4771C640.972 79.3285 641.979 78.9873 642.758 78.2509C643.595 77.4607 643.947 76.428 643.947 75.375H639.947ZM639.697 75.5H633.572V79.5H639.697V75.5ZM631.572 77.5V81.375H635.572V77.5H631.572ZM633.572 83.375H645.822V79.375H633.572V83.375ZM647.822 81.375V66.75H643.822V81.375H647.822ZM647.822 66.75C647.822 66.5425 647.853 66.4498 647.86 66.4311C647.863 66.4244 647.849 66.4547 647.817 66.4824C647.766 66.5269 647.898 66.375 648.572 66.375V62.375C647.414 62.375 646.171 62.6189 645.203 63.4551C644.178 64.3397 643.822 65.5674 643.822 66.75H647.822ZM648.572 66.375H656.197V62.375H648.572V66.375ZM656.197 66.375C656.806 66.375 656.895 66.5257 656.846 66.4767C656.797 66.4277 656.947 66.5166 656.947 67.125H660.947C660.947 65.9 660.64 64.614 659.674 63.6483C658.709 62.6826 657.422 62.375 656.197 62.375V66.375ZM656.947 67.125V91.75H660.947V67.125H656.947ZM656.947 91.75C656.947 92.1007 656.874 92.2522 656.841 92.3067C656.813 92.3517 656.744 92.444 656.513 92.5459L658.132 96.2041C658.984 95.8268 659.728 95.242 660.242 94.4121C660.75 93.5916 660.947 92.6701 660.947 91.75H656.947ZM657.322 92.375H622.572V96.375H657.322V92.375ZM622.572 92.375C622.487 92.375 622.475 92.3618 622.507 92.3746C622.546 92.3899 622.583 92.4166 622.605 92.4393C622.633 92.469 622.505 92.3507 622.425 91.823L618.47 92.427C618.619 93.3993 618.96 94.406 619.697 95.1857C620.487 96.0224 621.519 96.375 622.572 96.375V92.375ZM622.447 92.125V41.375H618.447V92.125H622.447ZM622.423 41.6869C622.51 41.139 622.65 41.0008 622.643 41.008C622.635 41.0156 622.622 41.0227 622.622 41.0226C622.629 41.0201 622.686 41 622.822 41V37C621.734 37 620.656 37.3382 619.815 38.1795C619.016 38.9784 618.635 40.0277 618.472 41.0631L622.423 41.6869ZM622.822 41H628.947V37H622.822V41ZM630.947 39V32.75H626.947V39H630.947ZM630.906 33.1533C630.958 32.9011 631.016 32.7265 631.065 32.6125C631.114 32.4986 631.145 32.4675 631.135 32.4795C631.119 32.4974 631.069 32.5452 630.983 32.5834C630.898 32.6214 630.835 32.625 630.822 32.625V28.625C629.779 28.625 628.834 29.0415 628.135 29.833C627.501 30.5518 627.17 31.4633 626.989 32.3467L630.906 33.1533ZM674.367 30.625V28.625H674.169L673.975 28.6638L674.367 30.625ZM693.992 32.875H695.992V32.7231L695.97 32.5729L693.992 32.875ZM693.992 39H691.992V41H693.992V39ZM689.367 52.125H691.367V50.125H689.367V52.125ZM677.117 52.125V50.125H675.117V52.125H677.117ZM677.117 64.375H675.117V66.375H677.117V64.375ZM702.492 91.5938L704.484 91.7748L704.492 91.6845V91.5938H702.492ZM663.992 92.0938H661.992V92.2456L662.015 92.3958L663.992 92.0938ZM663.992 83.625L662.035 83.2171L661.992 83.4189V83.625H663.992ZM689.367 81.375V83.375H691.367V81.375H689.367ZM689.367 77.5H691.367V75.5H689.367V77.5ZM666.242 77.5L665.94 79.4771L666.091 79.5H666.242V77.5ZM666.367 39V37H666.198L666.03 37.0286L666.367 39ZM672.492 39V41H674.492V39H672.492ZM672.492 32.5L670.531 32.1078L670.492 32.302V32.5H672.492ZM674.367 32.625H691.867V28.625H674.367V32.625ZM691.867 32.625C691.953 32.625 691.965 32.6382 691.933 32.6254C691.894 32.6101 691.857 32.5834 691.835 32.5607C691.807 32.531 691.935 32.6493 692.015 33.1771L695.97 32.5729C695.821 31.6007 695.48 30.594 694.743 29.8143C693.953 28.9776 692.921 28.625 691.867 28.625V32.625ZM691.992 32.875V39H695.992V32.875H691.992ZM693.992 41H699.742V37H693.992V41ZM699.742 41C700.351 41 700.44 41.1507 700.391 41.1017C700.342 41.0527 700.492 41.1416 700.492 41.75H704.492C704.492 40.525 704.185 39.239 703.219 38.2733C702.254 37.3076 700.967 37 699.742 37V41ZM700.492 41.75V57.75H704.492V41.75H700.492ZM700.492 57.75C700.492 58.0685 700.452 58.2657 700.415 58.3754C700.398 58.4282 700.382 58.4584 700.373 58.473C700.365 58.4868 700.36 58.4914 700.36 58.492C700.359 58.4927 700.354 58.4974 700.34 58.5057C700.326 58.5145 700.296 58.5303 700.243 58.5479C700.133 58.5845 699.936 58.625 699.617 58.625V62.625C700.884 62.625 702.201 62.307 703.188 61.3205C704.174 60.3339 704.492 59.0166 704.492 57.75H700.492ZM699.617 58.625H692.117V62.625H699.617V58.625ZM692.117 58.625C691.443 58.625 691.311 58.4731 691.362 58.5176C691.394 58.5453 691.408 58.5756 691.405 58.5689C691.398 58.5502 691.367 58.4575 691.367 58.25H687.367C687.367 59.4326 687.723 60.6603 688.748 61.5449C689.716 62.3811 690.959 62.625 692.117 62.625V58.625ZM691.367 58.25V52.125H687.367V58.25H691.367ZM689.367 50.125H677.117V54.125H689.367V50.125ZM675.117 52.125V64.375H679.117V52.125H675.117ZM677.117 66.375H699.617V62.375H677.117V66.375ZM699.617 66.375C699.936 66.375 700.133 66.4155 700.243 66.4521C700.296 66.4697 700.326 66.4855 700.34 66.4943C700.354 66.5026 700.359 66.5073 700.36 66.508C700.36 66.5086 700.365 66.5132 700.373 66.527C700.382 66.5416 700.398 66.5718 700.415 66.6246C700.452 66.7343 700.492 66.9315 700.492 67.25H704.492C704.492 65.9834 704.174 64.6661 703.188 63.6795C702.201 62.693 700.884 62.375 699.617 62.375V66.375ZM700.492 67.25V91.5938H704.492V67.25H700.492ZM700.501 91.4127C700.468 91.7714 700.415 92.0334 700.36 92.2169C700.304 92.4013 700.255 92.4725 700.25 92.4799C700.249 92.4818 700.258 92.468 700.283 92.447C700.308 92.4254 700.34 92.4025 700.379 92.383C700.464 92.3406 700.517 92.3438 700.492 92.3438V96.3438C701.694 96.3438 702.762 95.8261 703.485 94.8326C704.124 93.9533 704.387 92.8492 704.484 91.7748L700.501 91.4127ZM700.492 92.3438H666.117V96.3438H700.492V92.3438ZM666.117 92.3438C666.032 92.3438 666.02 92.3305 666.052 92.3434C666.091 92.3586 666.128 92.3854 666.15 92.408C666.178 92.4377 666.05 92.3194 665.97 91.7917L662.015 92.3958C662.164 93.3681 662.505 94.3748 663.242 95.1545C664.032 95.9912 665.064 96.3438 666.117 96.3438V92.3438ZM665.992 92.0938V83.625H661.992V92.0938H665.992ZM665.95 84.0329C666.007 83.7603 666.071 83.568 666.127 83.4387C666.183 83.3096 666.223 83.2652 666.222 83.2662C666.216 83.273 666.177 83.3115 666.106 83.3432C666.035 83.3746 665.987 83.375 665.992 83.375V79.375C664.922 79.375 663.952 79.7984 663.232 80.6088C662.575 81.3476 662.228 82.2906 662.035 83.2171L665.95 84.0329ZM665.992 83.375H689.367V79.375H665.992V83.375ZM691.367 81.375V77.5H687.367V81.375H691.367ZM689.367 75.5H666.242V79.5H689.367V75.5ZM666.545 75.5229C666.041 75.4459 665.938 75.3202 665.969 75.3514C665.989 75.3708 666.003 75.3969 666.008 75.4096C666.01 75.4156 665.992 75.3718 665.992 75.25H661.992C661.992 76.3033 662.318 77.357 663.141 78.1798C663.922 78.9611 664.944 79.3249 665.94 79.4771L666.545 75.5229ZM665.992 75.25V41.25H661.992V75.25H665.992ZM665.992 41.25C665.992 41.1586 666.007 41.1386 665.998 41.1608C665.987 41.1881 665.969 41.211 665.962 41.2175C665.96 41.219 665.999 41.1818 666.118 41.1304C666.24 41.0781 666.429 41.0186 666.705 40.9714L666.03 37.0286C665.023 37.2009 664 37.5663 663.211 38.3137C662.364 39.1162 661.992 40.1631 661.992 41.25H665.992ZM666.367 41H672.492V37H666.367V41ZM674.492 39V32.5H670.492V39H674.492ZM674.454 32.8922C674.496 32.6793 674.551 32.6454 674.532 32.6642C674.513 32.6831 674.547 32.6287 674.76 32.5862L673.975 28.6638C673.147 28.8296 672.347 29.1919 671.703 29.8358C671.059 30.4796 670.697 31.279 670.531 32.1078L674.454 32.8922Z" fill="black" mask="url(#path-3-outside-2_43_7)"/>
<circle cx="425" cy="60" r="39.5" fill="url(#paint0_linear_43_7)" stroke="black"/>
<g clip-path="url(#clip0_43_7)">
<path fill-rule="evenodd" clip-rule="evenodd" d="M422.464 44.1313C422.464 44.1313 402.714 43.8359 401.289 44.1313C399.864 44.4267 395.829 48.1208 394.384 53.9016C394.384 53.9016 414.294 54.0252 415.946 53.7601C417.598 53.495 421.375 49.5133 422.464 44.1313ZM427.65 44.1313C427.65 44.1313 447.4 43.8359 448.825 44.1313C450.25 44.4267 454.285 48.1208 455.729 53.9016C455.729 53.9016 435.82 54.0252 434.168 53.7601C432.516 53.495 428.739 49.5133 427.65 44.1313ZM391.561 64.1375C392.106 61.0138 392.697 58.8996 393.237 56.9654C393.34 56.5972 393.441 56.2355 393.539 55.8746H412.669C410.853 60.451 408.778 63.8196 406.476 63.9785C404.174 64.1375 391.561 64.1375 391.561 64.1375ZM456.876 56.9655V56.9656C457.416 58.8997 458.006 61.014 458.551 64.1375C458.551 64.1375 445.938 64.1375 443.636 63.9785C441.334 63.8196 439.259 60.451 437.443 55.8746H456.573C456.672 56.2355 456.773 56.5972 456.876 56.9655ZM398.419 74.6344L400.534 66.8201C400.653 66.3801 400.315 65.949 399.851 65.949H392.233C391.844 65.949 391.527 66.2596 391.533 66.6412C391.624 72.01 393.141 73.9204 397.567 75.1203C397.938 75.2209 398.32 74.9998 398.419 74.6344ZM449.578 66.8201L451.693 74.6344C451.792 74.9998 452.174 75.2209 452.546 75.1203C456.971 73.9204 458.489 72.01 458.579 66.6412C458.586 66.2596 458.268 65.949 457.879 65.949H450.262C449.798 65.949 449.459 66.3801 449.578 66.8201ZM416.463 63.7244C418.558 63.7244 420.256 62.0595 420.256 60.006C420.256 57.9525 418.558 56.2877 416.463 56.2877C414.368 56.2877 412.669 57.9525 412.669 60.006C412.669 62.0595 414.368 63.7244 416.463 63.7244ZM418.592 59.5266H416.97V57.937H415.974V59.5266H414.352V60.5036H415.974V62.0932H416.97V60.5036H418.592V59.5266ZM433.647 63.7244C435.743 63.7244 437.441 62.0595 437.441 60.006C437.441 57.9525 435.743 56.2877 433.647 56.2877C431.552 56.2877 429.854 57.9525 429.854 60.006C429.854 62.0595 431.552 63.7244 433.647 63.7244ZM433.647 62.8345C435.241 62.8345 436.533 61.5681 436.533 60.006C436.533 58.4439 435.241 57.1776 433.647 57.1776C432.054 57.1776 430.762 58.4439 430.762 60.006C430.762 61.5681 432.054 62.8345 433.647 62.8345ZM436.079 60.006C436.079 61.3224 434.99 62.3896 433.647 62.3896C432.304 62.3896 431.216 61.3224 431.216 60.006C431.216 58.6897 432.304 57.6225 433.647 57.6225C434.99 57.6225 436.079 58.6897 436.079 60.006Z" fill="#FFB800"/>
</g>
<defs>
<filter id="filter0_i_43_7" x="0.384003" y="8.992" width="373.683" height="95.264" filterUnits="userSpaceOnUse" color-interpolation-filters="sRGB">
<feFlood flood-opacity="0" result="BackgroundImageFix"/>
<feBlend mode="normal" in="SourceGraphic" in2="BackgroundImageFix" result="shape"/>
<feColorMatrix in="SourceAlpha" type="matrix" values="0 0 0 0 0 0 0 0 0 0 0 0 0 0 0 0 0 0 127 0" result="hardAlpha"/>
<feOffset dy="4"/>
<feGaussianBlur stdDeviation="2"/>
<feComposite in2="hardAlpha" operator="arithmetic" k2="-1" k3="1"/>
<feColorMatrix type="matrix" values="0 0 0 0 1 0 0 0 0 1 0 0 0 0 1 0 0 0 1 0"/>
<feBlend mode="normal" in2="shape" result="effect1_innerShadow_43_7"/>
</filter>
<filter id="filter1_i_43_7" x="481.562" y="30.625" width="220.93" height="67.75" filterUnits="userSpaceOnUse" color-interpolation-filters="sRGB">
<feFlood flood-opacity="0" result="BackgroundImageFix"/>
<feBlend mode="normal" in="SourceGraphic" in2="BackgroundImageFix" result="shape"/>
<feColorMatrix in="SourceAlpha" type="matrix" values="0 0 0 0 0 0 0 0 0 0 0 0 0 0 0 0 0 0 127 0" result="hardAlpha"/>
<feOffset dy="4"/>
<feGaussianBlur stdDeviation="2"/>
<feComposite in2="hardAlpha" operator="arithmetic" k2="-1" k3="1"/>
<feColorMatrix type="matrix" values="0 0 0 0 1 0 0 0 0 1 0 0 0 0 1 0 0 0 1 0"/>
<feBlend mode="normal" in2="shape" result="effect1_innerShadow_43_7"/>
</filter>
<linearGradient id="paint0_linear_43_7" x1="425" y1="20" x2="425" y2="100" gradientUnits="userSpaceOnUse">
<stop stop-color="#3D3D3D"/>
<stop offset="1" stop-color="#0E0E0E"/>
</linearGradient>
<clipPath id="clip0_43_7">
<rect width="67.2" height="31.2" fill="white" transform="translate(391.4 44)"/>
</clipPath>
</defs>
</svg>
